<svg width="146" height="96" viewBox="0 0 146 96" fill="none" xmlns="http://www.w3.org/2000/svg">
<path d="M12.0909 94H0.272727L34.4545 0.909088H46.0909L80.2727 94H68.4545L40.6364 15.6364H39.9091L12.0909 94ZM16.4545 57.6364H64.0909V67.6364H16.4545V57.6364ZM113.864 95.6364C109.439 95.6364 105.424 94.803 101.818 93.1364C98.2121 91.4394 95.3485 89 93.2273 85.8182C91.1061 82.6061 90.0455 78.7273 90.0455 74.1818C90.0455 70.1818 90.8333 66.9394 92.4091 64.4545C93.9848 61.9394 96.0909 59.9697 98.7273 58.5455C101.364 57.1212 104.273 56.0606 107.455 55.3636C110.667 54.6364 113.894 54.0606 117.136 53.6364C121.379 53.0909 124.818 52.6818 127.455 52.4091C130.121 52.1061 132.061 51.6061 133.273 50.9091C134.515 50.2121 135.136 49 135.136 47.2727V46.9091C135.136 42.4242 133.909 38.9394 131.455 36.4545C129.03 33.9697 125.348 32.7273 120.409 32.7273C115.288 32.7273 111.273 33.8485 108.364 36.0909C105.455 38.3333 103.409 40.7273 102.227 43.2727L92.0455 39.6364C93.8636 35.3939 96.2879 32.0909 99.3182 29.7273C102.379 27.3333 105.712 25.6667 109.318 24.7273C112.955 23.7576 116.53 23.2727 120.045 23.2727C122.288 23.2727 124.864 23.5455 127.773 24.0909C130.712 24.6061 133.545 25.6818 136.273 27.3182C139.03 28.9545 141.318 31.4242 143.136 34.7273C144.955 38.0303 145.864 42.4545 145.864 48V94H135.136V84.5455H134.591C133.864 86.0606 132.652 87.6818 130.955 89.4091C129.258 91.1364 127 92.6061 124.182 93.8182C121.364 95.0303 117.924 95.6364 113.864 95.6364ZM115.5 86C119.742 86 123.318 85.1667 126.227 83.5C129.167 81.8333 131.379 79.6818 132.864 77.0455C134.379 74.4091 135.136 71.6364 135.136 68.7273V58.9091C134.682 59.4545 133.682 59.9545 132.136 60.4091C130.621 60.8333 128.864 61.2121 126.864 61.5455C124.894 61.8485 122.97 62.1212 121.091 62.3636C119.242 62.5758 117.742 62.7576 116.591 62.9091C113.803 63.2727 111.197 63.8636 108.773 64.6818C106.379 65.4697 104.439 66.6667 102.955 68.2727C101.5 69.8485 100.773 72 100.773 74.7273C100.773 78.4545 102.152 81.2727 104.909 83.1818C107.697 85.0606 111.227 86 115.5 86Z" fill="white"/>
</svg>
