<svg width="363" height="114" viewBox="0 0 363 114" fill="none" xmlns="http://www.w3.org/2000/svg">
<path d="M14.6846 112H0.835205L40.892 2.90906H54.5284L94.5852 112H80.7358L48.1363 20.1676H47.2841L14.6846 112ZM19.7983 69.3863H75.6221V81.1051H19.7983V69.3863Z" fill="white"/>
<path d="M133.95 113.918C128.765 113.918 124.06 112.941 119.834 110.988C115.608 108.999 112.252 106.141 109.766 102.412C107.281 98.6477 106.038 94.1022 106.038 88.7755C106.038 84.088 106.961 80.2883 108.808 77.3764C110.654 74.4289 113.122 72.1207 116.212 70.4517C119.301 68.7826 122.71 67.5397 126.439 66.723C130.203 65.8707 133.985 65.196 137.785 64.6988C142.756 64.0596 146.787 63.5802 149.876 63.2606C153.001 62.9055 155.274 62.3196 156.695 61.5028C158.151 60.686 158.879 59.2656 158.879 57.2414V56.8153C158.879 51.5596 157.44 47.4758 154.564 44.5639C151.723 41.652 147.408 40.196 141.62 40.196C135.619 40.196 130.913 41.5099 127.504 44.1377C124.095 46.7656 121.698 49.571 120.313 52.5539L108.381 48.2926C110.512 43.321 113.353 39.4503 116.904 36.6804C120.491 33.875 124.397 31.9218 128.623 30.821C132.884 29.6846 137.075 29.1164 141.194 29.1164C143.822 29.1164 146.84 29.436 150.249 30.0752C153.694 30.6789 157.014 31.9396 160.21 33.8572C163.442 35.7748 166.123 38.669 168.254 42.5397C170.384 46.4105 171.45 51.5951 171.45 58.0937V112H158.879V100.92H158.239C157.387 102.696 155.967 104.596 153.978 106.62C151.989 108.644 149.344 110.366 146.041 111.787C142.739 113.207 138.708 113.918 133.95 113.918ZM135.867 102.625C140.839 102.625 145.029 101.648 148.438 99.6953C151.883 97.7422 154.475 95.2209 156.215 92.1314C157.991 89.0419 158.879 85.7926 158.879 82.3835V70.8778C158.346 71.517 157.174 72.103 155.363 72.6356C153.587 73.1328 151.528 73.5767 149.184 73.9673C146.876 74.3224 144.621 74.642 142.419 74.9261C140.253 75.1747 138.495 75.3878 137.146 75.5653C133.879 75.9914 130.825 76.6839 127.984 77.6427C125.178 78.566 122.906 79.9687 121.165 81.8508C119.461 83.6974 118.609 86.2187 118.609 89.4147C118.609 93.7826 120.224 97.0852 123.456 99.3224C126.723 101.524 130.86 102.625 135.867 102.625Z" fill="white"/>
<path d="M307 56.5C307 87.7041 281.704 113 250.5 113C219.296 113 194 87.7041 194 56.5C194 25.2959 219.296 0 250.5 0C281.704 0 307 25.2959 307 56.5Z" fill="#FEB89F"/>
<path d="M363 56.5C363 87.7041 337.704 113 306.5 113C275.296 113 250 87.7041 250 56.5C250 25.2959 275.296 0 306.5 0C337.704 0 363 25.2959 363 56.5Z" fill="#E23D75"/>
</svg>
