<svg width="349" height="305" viewBox="0 0 349 305" fill="none" xmlns="http://www.w3.org/2000/svg">
<path d="M76.8635 209.909V303H68.5908L13.5908 225.046H12.8635V303H4.36353V209.909H12.5908L67.7726 287.955H68.4999V209.909H76.8635Z" fill="url(#paint0_linear_249_2429)" fill-opacity="0.2"/>
<path d="M119.432 304.591C115.22 304.591 111.371 303.773 107.886 302.136C104.401 300.47 101.629 298.076 99.5681 294.955C97.5075 291.803 96.4772 287.985 96.4772 283.5C96.4772 280.046 97.1287 277.136 98.4317 274.773C99.7347 272.409 101.583 270.47 103.977 268.955C106.371 267.439 109.204 266.243 112.477 265.364C115.75 264.485 119.356 263.803 123.295 263.318C127.204 262.833 130.507 262.409 133.204 262.046C135.932 261.682 138.007 261.106 139.432 260.318C140.856 259.53 141.568 258.258 141.568 256.5V254.864C141.568 250.106 140.144 246.364 137.295 243.636C134.477 240.879 130.417 239.5 125.114 239.5C120.083 239.5 115.977 240.606 112.795 242.818C109.644 245.03 107.432 247.636 106.159 250.636L98.4772 247.864C100.053 244.046 102.235 241 105.023 238.727C107.81 236.424 110.932 234.773 114.386 233.773C117.841 232.743 121.341 232.227 124.886 232.227C127.553 232.227 130.326 232.576 133.204 233.273C136.114 233.97 138.811 235.182 141.295 236.909C143.78 238.606 145.795 240.985 147.341 244.046C148.886 247.076 149.659 250.924 149.659 255.591V303H141.568V291.955H141.068C140.098 294.015 138.659 296.015 136.75 297.955C134.841 299.894 132.447 301.485 129.568 302.727C126.689 303.97 123.31 304.591 119.432 304.591ZM120.523 297.182C124.826 297.182 128.553 296.227 131.704 294.318C134.856 292.409 137.28 289.879 138.977 286.727C140.704 283.546 141.568 280.046 141.568 276.227V266.136C140.962 266.712 139.947 267.227 138.523 267.682C137.129 268.136 135.507 268.546 133.659 268.909C131.841 269.243 130.023 269.53 128.204 269.773C126.386 270.015 124.75 270.227 123.295 270.409C119.356 270.894 115.992 271.652 113.204 272.682C110.417 273.712 108.28 275.136 106.795 276.955C105.31 278.743 104.568 281.046 104.568 283.864C104.568 288.106 106.083 291.394 109.114 293.727C112.144 296.03 115.947 297.182 120.523 297.182Z" fill="url(#paint1_linear_249_2429)" fill-opacity="0.2"/>
<path d="M171.182 303V233.182H179.045V243.909H179.773C181.167 240.303 183.485 237.47 186.727 235.409C190 233.318 193.924 232.273 198.5 232.273C203.318 232.273 207.273 233.409 210.364 235.682C213.485 237.924 215.818 241.015 217.364 244.955H217.954C219.53 241.076 222.091 238 225.636 235.727C229.212 233.424 233.545 232.273 238.636 232.273C245.121 232.273 250.242 234.318 254 238.409C257.757 242.47 259.636 248.409 259.636 256.227V303H251.545V256.227C251.545 250.712 250.136 246.576 247.318 243.818C244.5 241.061 240.788 239.682 236.182 239.682C230.848 239.682 226.742 241.318 223.864 244.591C220.985 247.864 219.545 252.015 219.545 257.046V303H211.273V255.5C211.273 250.773 209.954 246.955 207.318 244.046C204.682 241.136 200.97 239.682 196.182 239.682C192.97 239.682 190.076 240.47 187.5 242.046C184.954 243.621 182.939 245.818 181.454 248.636C180 251.424 179.273 254.636 179.273 258.273V303H171.182Z" fill="url(#paint2_linear_249_2429)" fill-opacity="0.2"/>
<path d="M309.284 304.455C302.769 304.455 297.132 302.939 292.375 299.909C287.617 296.849 283.935 292.621 281.329 287.227C278.754 281.803 277.466 275.561 277.466 268.5C277.466 261.47 278.754 255.227 281.329 249.773C283.935 244.288 287.526 240 292.102 236.909C296.708 233.788 302.026 232.227 308.057 232.227C311.845 232.227 315.496 232.924 319.011 234.318C322.526 235.682 325.678 237.788 328.466 240.636C331.284 243.455 333.511 247.015 335.148 251.318C336.784 255.591 337.602 260.652 337.602 266.5V270.5H283.057V263.364H329.329C329.329 258.879 328.42 254.849 326.602 251.273C324.814 247.667 322.314 244.818 319.102 242.727C315.92 240.636 312.239 239.591 308.057 239.591C303.632 239.591 299.739 240.773 296.375 243.136C293.011 245.5 290.375 248.621 288.466 252.5C286.587 256.379 285.632 260.621 285.602 265.227V269.5C285.602 275.046 286.557 279.894 288.466 284.046C290.405 288.167 293.148 291.364 296.693 293.636C300.239 295.909 304.435 297.046 309.284 297.046C312.587 297.046 315.481 296.53 317.966 295.5C320.481 294.47 322.587 293.091 324.284 291.364C326.011 289.606 327.314 287.682 328.193 285.591L335.875 288.091C334.814 291.03 333.072 293.743 330.648 296.227C328.254 298.712 325.254 300.712 321.648 302.227C318.072 303.712 313.951 304.455 309.284 304.455Z" fill="url(#paint3_linear_249_2429)" fill-opacity="0.2"/>
<path d="M77.9545 105.455V198.546H60.9545L20.4545 139.955H19.7726V198.546H0.0908203V105.455H17.3635L57.5454 164H58.3636V105.455H77.9545Z" fill="white"/>
<path d="M113.761 199.864C109.307 199.864 105.337 199.091 101.852 197.546C98.3673 195.97 95.6098 193.652 93.5795 190.591C91.5795 187.5 90.5795 183.652 90.5795 179.046C90.5795 175.167 91.2916 171.909 92.7158 169.273C94.1401 166.636 96.0795 164.515 98.534 162.909C100.989 161.303 103.776 160.091 106.898 159.273C110.049 158.455 113.352 157.879 116.807 157.546C120.867 157.121 124.14 156.727 126.625 156.364C129.11 155.97 130.913 155.394 132.034 154.636C133.155 153.879 133.716 152.758 133.716 151.273V151C133.716 148.121 132.807 145.894 130.989 144.318C129.201 142.742 126.655 141.955 123.352 141.955C119.867 141.955 117.095 142.727 115.034 144.273C112.973 145.788 111.61 147.697 110.943 150L93.034 148.546C93.9431 144.303 95.731 140.636 98.3976 137.546C101.064 134.424 104.504 132.03 108.716 130.364C112.958 128.667 117.867 127.818 123.443 127.818C127.322 127.818 131.034 128.273 134.579 129.182C138.155 130.091 141.322 131.5 144.079 133.409C146.867 135.318 149.064 137.773 150.67 140.773C152.276 143.742 153.079 147.303 153.079 151.455V198.546H134.716V188.864H134.17C133.049 191.046 131.549 192.97 129.67 194.636C127.792 196.273 125.534 197.561 122.898 198.5C120.261 199.409 117.216 199.864 113.761 199.864ZM119.307 186.5C122.155 186.5 124.67 185.939 126.852 184.818C129.034 183.667 130.746 182.121 131.989 180.182C133.231 178.242 133.852 176.046 133.852 173.591V166.182C133.246 166.576 132.413 166.939 131.352 167.273C130.322 167.576 129.155 167.864 127.852 168.136C126.549 168.379 125.246 168.606 123.943 168.818C122.64 169 121.458 169.167 120.398 169.318C118.125 169.652 116.14 170.182 114.443 170.909C112.746 171.636 111.428 172.621 110.489 173.864C109.549 175.076 109.079 176.591 109.079 178.409C109.079 181.045 110.034 183.061 111.943 184.455C113.882 185.818 116.337 186.5 119.307 186.5Z" fill="white"/>
<path d="M168.102 198.546V128.727H186.557V141.046H187.375C188.829 136.955 191.254 133.727 194.648 131.364C198.042 129 202.102 127.818 206.829 127.818C211.617 127.818 215.693 129.015 219.057 131.409C222.42 133.773 224.663 136.985 225.784 141.046H226.511C227.936 137.046 230.511 133.849 234.239 131.455C237.996 129.03 242.436 127.818 247.557 127.818C254.072 127.818 259.36 129.894 263.42 134.046C267.511 138.167 269.557 144.015 269.557 151.591V198.546H250.239V155.409C250.239 151.53 249.208 148.621 247.148 146.682C245.087 144.742 242.511 143.773 239.42 143.773C235.905 143.773 233.163 144.894 231.193 147.136C229.223 149.349 228.239 152.273 228.239 155.909V198.546H209.466V155C209.466 151.576 208.481 148.849 206.511 146.818C204.572 144.788 202.011 143.773 198.829 143.773C196.678 143.773 194.739 144.318 193.011 145.409C191.314 146.47 189.966 147.97 188.966 149.909C187.966 151.818 187.466 154.061 187.466 156.636V198.546H168.102Z" fill="white"/>
<path d="M316.67 199.909C309.489 199.909 303.307 198.455 298.125 195.546C292.973 192.606 289.004 188.455 286.216 183.091C283.428 177.697 282.034 171.318 282.034 163.955C282.034 156.773 283.428 150.47 286.216 145.046C289.004 139.621 292.928 135.394 297.989 132.364C303.079 129.333 309.049 127.818 315.898 127.818C320.504 127.818 324.792 128.561 328.761 130.046C332.761 131.5 336.246 133.697 339.216 136.636C342.216 139.576 344.549 143.273 346.216 147.727C347.882 152.152 348.716 157.333 348.716 163.273V168.591H289.761V156.591H330.489C330.489 153.803 329.883 151.333 328.67 149.182C327.458 147.03 325.776 145.349 323.625 144.136C321.504 142.894 319.034 142.273 316.216 142.273C313.276 142.273 310.67 142.955 308.398 144.318C306.155 145.652 304.398 147.455 303.125 149.727C301.852 151.97 301.201 154.47 301.17 157.227V168.636C301.17 172.091 301.807 175.076 303.079 177.591C304.382 180.106 306.216 182.045 308.579 183.409C310.943 184.773 313.746 185.455 316.989 185.455C319.14 185.455 321.11 185.152 322.898 184.546C324.686 183.939 326.216 183.03 327.489 181.818C328.761 180.606 329.731 179.121 330.398 177.364L348.307 178.546C347.398 182.849 345.534 186.606 342.716 189.818C339.928 193 336.322 195.485 331.898 197.273C327.504 199.03 322.428 199.909 316.67 199.909Z" fill="white"/>
<path d="M76.3636 0.90918V94.0001H73.4545L9.81814 6.36372H9.4545V94.0001H6.54541V0.90918H9.4545L73.0909 88.5455H73.4545V0.90918H76.3636Z" fill="url(#paint4_linear_249_2429)" fill-opacity="0.2"/>
<path d="M120.693 95.4546C116.875 95.4546 113.345 94.6668 110.102 93.091C106.89 91.5152 104.299 89.2122 102.329 86.1819C100.39 83.1516 99.4204 79.4546 99.4204 75.091C99.4204 72.7274 99.7992 70.5152 100.557 68.4546C101.314 66.3637 102.648 64.4698 104.557 62.7728C106.466 61.0759 109.133 59.6213 112.557 58.4092C116.011 57.1971 120.42 56.2728 125.784 55.6365C128.996 55.2728 132.026 54.8486 134.875 54.3637C137.723 53.8789 140.042 53.1516 141.829 52.1819C143.617 51.2122 144.511 49.8183 144.511 48.0001V43.8183C144.511 38.4546 142.708 34.1516 139.102 30.9092C135.496 27.6365 130.693 26.0001 124.693 26.0001C119.784 26.0001 115.496 27.091 111.829 29.2728C108.163 31.4243 105.602 34.4546 104.148 38.3637L101.42 37.2728C102.511 34.3637 104.193 31.8486 106.466 29.7274C108.739 27.6062 111.436 25.9698 114.557 24.8183C117.678 23.6668 121.057 23.091 124.693 23.091C128.239 23.091 131.405 23.6213 134.193 24.6819C137.011 25.7122 139.405 27.1668 141.375 29.0455C143.345 30.894 144.845 33.0759 145.875 35.591C146.905 38.1062 147.42 40.8486 147.42 43.8183V94.0001H144.511V79.8183H144.148C142.693 82.9698 140.799 85.7274 138.466 88.091C136.163 90.4243 133.496 92.2425 130.466 93.5455C127.466 94.8183 124.208 95.4546 120.693 95.4546ZM120.693 92.5455C125.117 92.5455 129.133 91.3637 132.739 89.0001C136.345 86.6062 139.208 83.288 141.329 79.0455C143.451 74.7728 144.511 69.8183 144.511 64.1819V53.6365C143.663 54.2728 142.633 54.8334 141.42 55.3183C140.239 55.8031 138.89 56.2425 137.375 56.6365C135.89 57.0001 134.269 57.3183 132.511 57.591C130.754 57.8637 128.875 58.1213 126.875 58.3637C120.633 59.091 115.723 60.1971 112.148 61.6819C108.572 63.1668 106.042 65.0304 104.557 67.2728C103.072 69.5152 102.329 72.1213 102.329 75.091C102.329 80.3637 104.087 84.591 107.602 87.7728C111.148 90.9546 115.511 92.5455 120.693 92.5455Z" fill="url(#paint5_linear_249_2429)" fill-opacity="0.2"/>
<path d="M172.489 94.0001V24.1819H175.398V34.5455H175.761C177.034 31.1516 179.307 28.4243 182.579 26.3637C185.883 24.3031 189.852 23.2728 194.489 23.2728C199.761 23.2728 203.958 24.5758 207.079 27.1819C210.231 29.788 212.398 33.2728 213.579 37.6365H213.943C215.095 33.2728 217.428 29.788 220.943 27.1819C224.458 24.5758 228.852 23.2728 234.125 23.2728C241.125 23.2728 246.292 25.5001 249.625 29.9546C252.989 34.3789 254.67 40.091 254.67 47.091V94.0001H251.761V47.091C251.761 40.9092 250.367 35.8789 247.58 32.0001C244.792 28.1213 240.307 26.1819 234.125 26.1819C227.943 26.1819 223.216 28.1516 219.943 32.091C216.67 36.0001 215.034 41.0001 215.034 47.091V94.0001H212.125V47.091C212.125 40.9092 210.731 35.8789 207.943 32.0001C205.155 28.1213 200.67 26.1819 194.489 26.1819C190.367 26.1819 186.883 27.0758 184.034 28.8637C181.216 30.6516 179.064 33.1213 177.579 36.2728C176.125 39.4243 175.398 43.0304 175.398 47.091V94.0001H172.489Z" fill="url(#paint6_linear_249_2429)" fill-opacity="0.2"/>
<path d="M305.545 95.4546C299.455 95.4546 294.121 93.8637 289.545 90.6819C285 87.5001 281.47 83.1819 278.955 77.7274C276.439 72.2728 275.182 66.1213 275.182 59.2728C275.182 52.4243 276.439 46.2728 278.955 40.8183C281.5 35.3637 284.955 31.0455 289.318 27.8637C293.682 24.6819 298.606 23.091 304.091 23.091C308.151 23.091 311.909 23.9546 315.364 25.6819C318.848 27.4092 321.879 29.8031 324.455 32.8637C327.03 35.9243 329.03 39.4546 330.455 43.4546C331.909 47.4243 332.636 51.6668 332.636 56.1819V59.091H276.636V56.1819H329.727C329.727 50.5758 328.576 45.5001 326.273 40.9546C323.97 36.3789 320.879 32.7425 317 30.0455C313.121 27.3486 308.818 26.0001 304.091 26.0001C299.303 26.0001 294.97 27.4243 291.091 30.2728C287.212 33.1213 284.106 37.0001 281.773 41.9092C279.439 46.8183 278.212 52.3637 278.091 58.5455V58.9092C278.091 65.0001 279.151 70.6062 281.273 75.7274C283.424 80.8183 286.545 84.894 290.636 87.9546C294.727 91.0152 299.697 92.5455 305.545 92.5455C309.848 92.5455 313.455 91.788 316.364 90.2728C319.303 88.7577 321.651 87.0152 323.409 85.0455C325.197 83.0759 326.515 81.394 327.364 80.0001L329.727 81.6365C328.697 83.394 327.151 85.3486 325.091 87.5001C323.03 89.6516 320.394 91.5152 317.182 93.091C313.97 94.6668 310.091 95.4546 305.545 95.4546Z" fill="url(#paint7_linear_249_2429)" fill-opacity="0.2"/>
<defs>
<linearGradient id="paint0_linear_249_2429" x1="170.983" y1="209.909" x2="171" y2="257" gradientUnits="userSpaceOnUse">
<stop stop-opacity="0"/>
<stop offset="1" stop-color="white"/>
</linearGradient>
<linearGradient id="paint1_linear_249_2429" x1="170.983" y1="209.909" x2="171" y2="257" gradientUnits="userSpaceOnUse">
<stop stop-opacity="0"/>
<stop offset="1" stop-color="white"/>
</linearGradient>
<linearGradient id="paint2_linear_249_2429" x1="170.983" y1="209.909" x2="171" y2="257" gradientUnits="userSpaceOnUse">
<stop stop-opacity="0"/>
<stop offset="1" stop-color="white"/>
</linearGradient>
<linearGradient id="paint3_linear_249_2429" x1="170.983" y1="209.909" x2="171" y2="257" gradientUnits="userSpaceOnUse">
<stop stop-opacity="0"/>
<stop offset="1" stop-color="white"/>
</linearGradient>
<linearGradient id="paint4_linear_249_2429" x1="169.591" y1="62" x2="169.591" y2="95" gradientUnits="userSpaceOnUse">
<stop stop-color="white"/>
<stop offset="0.9999" stop-color="#6A6A6A" stop-opacity="0.416667"/>
<stop offset="1" stop-opacity="0"/>
</linearGradient>
<linearGradient id="paint5_linear_249_2429" x1="169.591" y1="62" x2="169.591" y2="95" gradientUnits="userSpaceOnUse">
<stop stop-color="white"/>
<stop offset="0.9999" stop-color="#6A6A6A" stop-opacity="0.416667"/>
<stop offset="1" stop-opacity="0"/>
</linearGradient>
<linearGradient id="paint6_linear_249_2429" x1="169.591" y1="62" x2="169.591" y2="95" gradientUnits="userSpaceOnUse">
<stop stop-color="white"/>
<stop offset="0.9999" stop-color="#6A6A6A" stop-opacity="0.416667"/>
<stop offset="1" stop-opacity="0"/>
</linearGradient>
<linearGradient id="paint7_linear_249_2429" x1="169.591" y1="62" x2="169.591" y2="95" gradientUnits="userSpaceOnUse">
<stop stop-color="white"/>
<stop offset="0.9999" stop-color="#6A6A6A" stop-opacity="0.416667"/>
<stop offset="1" stop-opacity="0"/>
</linearGradient>
</defs>
</svg>
