<svg width="27" height="27" viewBox="0 0 27 27" fill="none" xmlns="http://www.w3.org/2000/svg">
<path d="M9.43494 12.7906C9.43494 13.6166 10.0785 14.2924 10.8616 14.2924H12.4706C13.1571 14.2924 13.7149 13.7024 13.7149 12.9837C13.7149 12.2007 13.3717 11.9218 12.8675 11.7394L10.2931 10.8384C9.77819 10.656 9.43494 10.3771 9.43494 9.59406C9.43494 8.87537 9.99273 8.2854 10.6792 8.2854H12.2883C13.082 8.29613 13.7256 8.96119 13.7256 9.78715M11.5803 14.346V15.1398M11.5803 7.43799V8.27467" stroke="white" stroke-width="1.43023" stroke-linecap="round" stroke-linejoin="round"/>
<path d="M14.7767 21.8869C15.7422 23.2492 17.319 24.1396 19.1211 24.1396C22.0495 24.1396 24.4308 21.7582 24.4308 18.8298C24.4308 17.0492 23.5512 15.4723 22.2104 14.5069M11.5694 19.8489C13.8425 19.8489 16.0225 18.9459 17.6298 17.3386C19.2371 15.7313 20.1401 13.5513 20.1401 11.2782C20.1401 9.00511 19.2371 6.82512 17.6298 5.21781C16.0225 3.6105 13.8425 2.70752 11.5694 2.70752C9.29636 2.70752 7.11638 3.6105 5.50907 5.21781C3.90176 6.82512 2.99878 9.00511 2.99878 11.2782C2.99878 13.5513 3.90176 15.7313 5.50907 17.3386C7.11638 18.9459 9.29636 19.8489 11.5694 19.8489V19.8489Z" stroke="white" stroke-width="1.43023" stroke-linecap="round" stroke-linejoin="round"/>
</svg>
